<svg width="35" height="8" viewBox="0 0 35 8" fill="none" xmlns="http://www.w3.org/2000/svg">
<path d="M34.362 3.99934C34.5553 3.80209 34.5521 3.48553 34.3548 3.29227L31.1405 0.142944C30.9433 -0.0503145 30.6267 -0.0470821 30.4334 0.150164C30.2402 0.347409 30.2434 0.663975 30.4407 0.857234L33.2978 3.65663L30.4984 6.51379C30.3052 6.71104 30.3084 7.0276 30.5056 7.22086C30.7029 7.41412 31.0194 7.41089 31.2127 7.21364L34.362 3.99934ZM0.00488281 3.99658L0.00998796 4.49656L17.01 4.32297L17.0049 3.823L16.9998 3.32302L-0.000222332 3.49661L0.00488281 3.99658ZM17.0049 3.823L17.01 4.32297L34.01 4.14939L34.0049 3.64941L33.9998 3.14944L16.9998 3.32302L17.0049 3.823Z" fill="black"/>
</svg>
